<svg width="48" height="48" viewBox="0 0 48 48" fill="none" xmlns="http://www.w3.org/2000/svg">
<g id="calendar 2" clip-path="url(#clip0_0_565)">
<g id="Group">
<g id="Group_2">
<path id="Vector" d="M12 0C11.0532 0 10.2856 0.767511 10.2856 1.71432V5.14285H13.7142V1.71432C13.7142 0.767511 12.9467 0 12 0Z" fill="#F5F5FC"/>
</g>
</g>
<g id="Group_3">
<g id="Group_4">
<path id="Vector_2" d="M36 0C35.0532 0 34.2856 0.767511 34.2856 1.71432V5.14285H37.7142V1.71432C37.7143 0.767511 36.9468 0 36 0Z" fill="#F5F5FC"/>
</g>
</g>
<g id="Group_5">
<g id="Group_6">
<path id="Vector_3" d="M42.8571 5.14282H37.7143V12C37.7143 12.9468 36.9468 13.7143 36 13.7143C35.0532 13.7143 34.2857 12.9468 34.2857 12V5.14282H13.7142V12C13.7142 12.9468 12.9467 13.7143 11.9999 13.7143C11.0531 13.7143 10.2856 12.9468 10.2856 12V5.14282H5.14285C2.30253 5.14282 0 7.44535 0 10.2857V42.8571C0 45.6974 2.30253 48 5.14285 48H42.8571C45.6975 48 48 45.6974 48 42.8571V10.2857C48 7.44535 45.6975 5.14282 42.8571 5.14282ZM44.5714 42.8571C44.5714 43.8039 43.8039 44.5714 42.857 44.5714H5.14285C4.19605 44.5714 3.42854 43.8039 3.42854 42.8571V20.5714H44.5714V42.8571Z" fill="#F5F5FC"/>
</g>
</g>
<g id="Group_7">
<g id="Group_8">
<path id="Vector_4" d="M13.7141 23.9999H10.2856C9.3388 23.9999 8.57129 24.7674 8.57129 25.7142C8.57129 26.661 9.3388 27.4285 10.2856 27.4285H13.7141C14.6609 27.4285 15.4285 26.661 15.4285 25.7142C15.4285 24.7674 14.6609 23.9999 13.7141 23.9999Z" fill="#F5F5FC"/>
</g>
</g>
<g id="Group_9">
<g id="Group_10">
<path id="Vector_5" d="M25.7144 23.9999H22.2859C21.339 23.9999 20.5715 24.7674 20.5715 25.7142C20.5715 26.661 21.339 27.4285 22.2859 27.4285H25.7144C26.6612 27.4285 27.4287 26.661 27.4287 25.7142C27.4287 24.7674 26.6612 23.9999 25.7144 23.9999Z" fill="#F5F5FC"/>
</g>
</g>
<g id="Group_11">
<g id="Group_12">
<path id="Vector_6" d="M37.7144 23.9999H34.2859C33.339 23.9999 32.5715 24.7674 32.5715 25.7142C32.5715 26.661 33.339 27.4285 34.2859 27.4285H37.7144C38.6612 27.4285 39.4287 26.661 39.4287 25.7142C39.4287 24.7674 38.6611 23.9999 37.7144 23.9999Z" fill="#F5F5FC"/>
</g>
</g>
<g id="Group_13">
<g id="Group_14">
<path id="Vector_7" d="M13.7141 30.8571H10.2856C9.3388 30.8571 8.57129 31.6246 8.57129 32.5714C8.57129 33.5182 9.3388 34.2857 10.2856 34.2857H13.7141C14.6609 34.2857 15.4285 33.5182 15.4285 32.5714C15.4285 31.6246 14.6609 30.8571 13.7141 30.8571Z" fill="#F5F5FC"/>
</g>
</g>
<g id="Group_15">
<g id="Group_16">
<path id="Vector_8" d="M25.7144 30.8571H22.2859C21.339 30.8571 20.5715 31.6246 20.5715 32.5714C20.5715 33.5182 21.339 34.2857 22.2859 34.2857H25.7144C26.6612 34.2857 27.4287 33.5182 27.4287 32.5714C27.4287 31.6246 26.6612 30.8571 25.7144 30.8571Z" fill="#F5F5FC"/>
</g>
</g>
<g id="Group_17">
<g id="Group_18">
<path id="Vector_9" d="M37.7144 30.8571H34.2859C33.339 30.8571 32.5715 31.6246 32.5715 32.5714C32.5715 33.5182 33.339 34.2857 34.2859 34.2857H37.7144C38.6612 34.2857 39.4287 33.5182 39.4287 32.5714C39.4286 31.6246 38.6611 30.8571 37.7144 30.8571Z" fill="#F5F5FC"/>
</g>
</g>
<g id="Group_19">
<g id="Group_20">
<path id="Vector_10" d="M13.7141 37.7142H10.2856C9.3388 37.7142 8.57129 38.4817 8.57129 39.4286C8.57129 40.3754 9.3388 41.1428 10.2856 41.1428H13.7141C14.6609 41.1428 15.4285 40.3753 15.4285 39.4284C15.4285 38.4816 14.6609 37.7142 13.7141 37.7142Z" fill="#F5F5FC"/>
</g>
</g>
<g id="Group_21">
<g id="Group_22">
<path id="Vector_11" d="M25.7144 37.7142H22.2859C21.339 37.7142 20.5715 38.4817 20.5715 39.4285C20.5715 40.3754 21.339 41.1429 22.2859 41.1429H25.7144C26.6612 41.1429 27.4287 40.3754 27.4287 39.4285C27.4287 38.4817 26.6612 37.7142 25.7144 37.7142Z" fill="#F5F5FC"/>
</g>
</g>
<g id="Group_23">
<g id="Group_24">
<path id="Vector_12" d="M37.7144 37.7142H34.2859C33.339 37.7142 32.5715 38.4817 32.5715 39.4285C32.5715 40.3754 33.339 41.1429 34.2859 41.1429H37.7144C38.6612 41.1429 39.4287 40.3754 39.4287 39.4285C39.4287 38.4817 38.6611 37.7142 37.7144 37.7142Z" fill="#F5F5FC"/>
</g>
</g>
</g>
<defs>
<clipPath id="clip0_0_565">
<rect width="48" height="48" fill="white"/>
</clipPath>
</defs>
</svg>
