<svg width="50" height="50" viewBox="0 0 50 50" fill="none" xmlns="http://www.w3.org/2000/svg">
<rect y="-0.00012207" width="50" height="50" rx="8" fill="#23BDEE"/>
<g clip-path="url(#clip0_0_672)">
<path d="M18.125 11.2499C17.5825 11.2499 17.1428 11.6896 17.1428 12.232V14.1963H19.1071V12.232C19.1071 11.6896 18.6674 11.2499 18.125 11.2499Z" fill="white"/>
<path d="M31.875 11.2499C31.3325 11.2499 30.8928 11.6896 30.8928 12.232V14.1963H32.8571V12.232C32.8571 11.6896 32.4174 11.2499 31.875 11.2499Z" fill="white"/>
<path d="M35.8036 14.1963H32.8571V18.1249C32.8571 18.6673 32.4174 19.107 31.875 19.107C31.3325 19.107 30.8928 18.6673 30.8928 18.1249V14.1963H19.1071V18.1249C19.1071 18.6673 18.6674 19.107 18.125 19.107C17.5825 19.107 17.1428 18.6673 17.1428 18.1249V14.1963H14.1964C12.5692 14.1963 11.25 15.5154 11.25 17.1427V35.8034C11.25 37.4307 12.5692 38.7499 14.1964 38.7499H35.8036C37.4308 38.7499 38.75 37.4307 38.75 35.8034V17.1427C38.75 15.5154 37.4308 14.1963 35.8036 14.1963ZM36.7857 35.8034C36.7857 36.3459 36.346 36.7856 35.8035 36.7856H14.1964C13.654 36.7856 13.2143 36.3459 13.2143 35.8034V23.0356H36.7857V35.8034Z" fill="white"/>
<path d="M19.1071 24.9999H17.1428C16.6004 24.9999 16.1606 25.4396 16.1606 25.982C16.1606 26.5245 16.6004 26.9642 17.1428 26.9642H19.1071C19.6495 26.9642 20.0892 26.5245 20.0892 25.982C20.0892 25.4396 19.6495 24.9999 19.1071 24.9999Z" fill="white"/>
<path d="M25.9821 24.9999H24.0178C23.4754 24.9999 23.0356 25.4396 23.0356 25.982C23.0356 26.5245 23.4754 26.9642 24.0178 26.9642H25.9821C26.5245 26.9642 26.9642 26.5245 26.9642 25.982C26.9642 25.4396 26.5245 24.9999 25.9821 24.9999Z" fill="white"/>
<path d="M32.8571 24.9999H30.8928C30.3504 24.9999 29.9106 25.4396 29.9106 25.982C29.9106 26.5245 30.3504 26.9642 30.8928 26.9642H32.8571C33.3995 26.9642 33.8392 26.5245 33.8392 25.982C33.8392 25.4396 33.3995 24.9999 32.8571 24.9999Z" fill="white"/>
<path d="M19.1071 28.9285H17.1428C16.6004 28.9285 16.1606 29.3682 16.1606 29.9106C16.1606 30.4531 16.6004 30.8928 17.1428 30.8928H19.1071C19.6495 30.8928 20.0892 30.4531 20.0892 29.9106C20.0892 29.3682 19.6495 28.9285 19.1071 28.9285Z" fill="white"/>
<path d="M25.9821 28.9285H24.0178C23.4754 28.9285 23.0356 29.3682 23.0356 29.9106C23.0356 30.4531 23.4754 30.8928 24.0178 30.8928H25.9821C26.5245 30.8928 26.9642 30.4531 26.9642 29.9106C26.9642 29.3682 26.5245 28.9285 25.9821 28.9285Z" fill="white"/>
<path d="M32.8571 28.9285H30.8928C30.3504 28.9285 29.9106 29.3682 29.9106 29.9106C29.9106 30.4531 30.3504 30.8928 30.8928 30.8928H32.8571C33.3995 30.8928 33.8392 30.4531 33.8392 29.9106C33.8392 29.3682 33.3995 28.9285 32.8571 28.9285Z" fill="white"/>
<path d="M19.1071 32.8571H17.1428C16.6004 32.8571 16.1606 33.2968 16.1606 33.8392C16.1606 34.3817 16.6004 34.8213 17.1428 34.8213H19.1071C19.6495 34.8213 20.0892 34.3816 20.0892 33.8392C20.0892 33.2967 19.6495 32.8571 19.1071 32.8571Z" fill="white"/>
<path d="M25.9821 32.8571H24.0178C23.4754 32.8571 23.0356 33.2968 23.0356 33.8392C23.0356 34.3817 23.4754 34.8214 24.0178 34.8214H25.9821C26.5245 34.8214 26.9642 34.3817 26.9642 33.8392C26.9642 33.2968 26.5245 32.8571 25.9821 32.8571Z" fill="white"/>
<path d="M32.8571 32.8571H30.8928C30.3504 32.8571 29.9106 33.2968 29.9106 33.8392C29.9106 34.3817 30.3504 34.8214 30.8928 34.8214H32.8571C33.3995 34.8214 33.8392 34.3817 33.8392 33.8392C33.8392 33.2968 33.3995 32.8571 32.8571 32.8571Z" fill="white"/>
</g>
<defs>
<clipPath id="clip0_0_672">
<rect width="27.5" height="27.5" fill="white" transform="translate(11.25 11.2499)"/>
</clipPath>
</defs>
</svg>
